<?xml version="1.0" encoding="UTF-8"?>
<svg xmlns="http://www.w3.org/2000/svg" viewBox="0 0 703.58 292.94">
  <defs>
    <style>
      .cls-1 {
        fill: #f5f5dc;
        stroke-width: 0px;
      }
    </style>
  </defs>
  <g id="the">
    <g>
      <path class="cls-1" d="M4.49,135.96v-7.16c0-1.07.05-2.01.16-2.83.11-.82.55-1.41,1.34-1.76.36-.14.78-.21,1.28-.21h6.31c.36,0,.77.02,1.23.05.46.04.87.02,1.23-.05h1.18c.57,0,1.09-.04,1.55-.11.46-.07.87-.25,1.23-.53.64-.5.98-1.41,1.02-2.73.04-1.32.05-2.58.05-3.79v-1.28c0-.43.07-.82.21-1.18.36-.78,1-1.23,1.92-1.34.93-.11,1.96-.16,3.1-.16.5,0,1-.02,1.5-.05.5-.04.93.02,1.28.16,1.14.36,1.75,1.11,1.82,2.24.07,1.14.11,2.42.11,3.85,0,.29-.02.59-.05.91-.04.32-.02.59.05.8.07.29.09.53.05.75-.04.21.02.43.16.64.14.57.45.98.91,1.23.46.25,1.02.45,1.66.59.36.07.75.07,1.18,0,.43-.07.82-.07,1.18,0h19.13c1.78,0,3.33-.05,4.65-.16,1.32-.11,2.48-.55,3.47-1.34.43-.36.73-.84.91-1.44.18-.6.34-1.23.48-1.87.07-.21.09-.44.05-.69-.03-.25-.02-.44.05-.59v-1.18c0-.78.04-1.46.11-2.03.07-.57.36-1.03.85-1.39.43-.28.98-.43,1.66-.43h2.08c1.5,0,2.87.02,4.11.05,1.25.04,2.08.62,2.51,1.76.14.36.2.68.16.96-.04.29.02.61.16.96v1.07c0,.14-.02.36-.05.64-.04.29-.02.53.05.75.07.36.09.73.05,1.12-.04.39-.05.77-.05,1.12s.02.71.05,1.07c.04.36.02.68-.05.96v1.18c-.07.36-.11.75-.11,1.18s-.04.82-.11,1.18c-.07.5-.14.96-.21,1.39-.07.43-.14.85-.21,1.28-.21.78-.46,1.53-.75,2.24-.28.71-.6,1.39-.96,2.03-.14.21-.3.43-.48.64-.18.21-.37.46-.59.75-.14.14-.3.32-.48.53-.18.21-.34.39-.48.53-1.35,1-2.85,1.75-4.49,2.24-.28.14-.55.2-.8.16-.25-.04-.55-.02-.91.05-.14.07-.32.11-.53.11s-.39.04-.53.11h-1.07c-.28.07-.6.09-.96.05-.36-.04-.71-.05-1.07-.05h-25.65c-.5,0-1-.02-1.5-.05-.5-.04-.96.02-1.39.16-1,.29-1.64.79-1.92,1.5-.36.79-.46,1.78-.32,2.99.14,1.21.04,2.24-.32,3.1-.21.57-.53.93-.96,1.07-.43.14-.96.29-1.6.43h-2.24c-1.28,0-2.31-.07-3.1-.21-.78-.14-1.32-.75-1.6-1.82-.14-.28-.2-.57-.16-.85.04-.28.05-.6.05-.96,0-1.07-.05-2.07-.16-2.99-.11-.92-.52-1.57-1.23-1.92-.5-.21-1.07-.34-1.71-.37-.64-.04-1.28-.05-1.92-.05H7.59c-.64,0-1.18-.07-1.6-.21-.71-.36-1.18-.89-1.39-1.6-.07-.14-.09-.34-.05-.59.04-.25.02-.44-.05-.59Z"/>
      <path class="cls-1" d="M0,106.89v-9.35c0-.68.18-1.23.53-1.66.29-.5.89-.82,1.82-.96.36,0,.69-.02,1.02-.05.32-.04.66-.05,1.02-.05h16.14c.5,0,1.07.02,1.71.05.64.04,1.27.02,1.87-.05.61-.07,1.11-.23,1.5-.48.39-.25.59-.62.59-1.12-.14-.14-.21-.28-.21-.43s-.07-.28-.21-.43c-.36-.5-.77-.96-1.23-1.39-.46-.43-.87-.92-1.23-1.5-.57-.78-1.07-1.6-1.5-2.46-.43-.85-.85-1.78-1.28-2.78-.14-.28-.21-.57-.21-.85s-.07-.6-.21-.96c-.21-.71-.36-1.46-.43-2.24-.07-.78-.11-1.64-.11-2.56v-1.02c0-.32.04-.66.11-1.02v-.64c.07-.5.14-.98.21-1.44.07-.46.14-.94.21-1.44.36-1.21.73-2.33,1.12-3.37.39-1.03.87-2.05,1.44-3.05,1-1.57,2.26-2.83,3.79-3.79,1.53-.96,3.22-1.76,5.08-2.4.57-.14,1.16-.27,1.76-.37.61-.11,1.19-.23,1.76-.37.64-.14,1.32-.21,2.03-.21s1.43-.07,2.14-.21h1.18c.57-.14,1.19-.18,1.87-.11.68.07,1.3.11,1.87.11h24.26c1.21,0,2.5-.03,3.85-.11,1.35-.07,2.39.18,3.1.75.43.36.66.93.69,1.71.04.79.05,1.57.05,2.35v5.34c0,1.14-.05,2.1-.16,2.89-.11.78-.55,1.35-1.34,1.71-.43.21-.94.32-1.55.32h-24.95c-2.99,0-5.75.14-8.28.43-2.53.29-4.51,1.18-5.93,2.67-1,1-1.71,2.21-2.14,3.63-.07.29-.11.52-.11.69s-.04.41-.11.69c-.07.29-.14.66-.21,1.12-.07.46-.04.84.11,1.12.07.43.11.87.11,1.34s.07.91.21,1.34c.43,1.64,1.07,3.06,1.92,4.27,1,1.28,2.33,2.23,4.01,2.83,1.67.61,3.56,1.02,5.66,1.23,2.1.21,4.33.3,6.68.27,2.35-.04,4.63-.05,6.84-.05h15.87c1.03,0,1.83.18,2.4.53.29.21.48.5.59.85.11.36.23.71.37,1.07.14.43.18.91.11,1.44-.07.53-.11,1.05-.11,1.55,0,.64.02,1.39.05,2.24.04.85.05,1.71.05,2.56s-.05,1.64-.16,2.35c-.11.71-.3,1.25-.59,1.6-.36.43-.91.66-1.66.69-.75.04-1.51.05-2.3.05H7.27c-.92,0-2.03.04-3.31.11-1.28.07-2.21-.07-2.78-.43-.5-.43-.85-1-1.07-1.71-.07-.14-.09-.28-.05-.43.04-.14.02-.28-.05-.43Z"/>
      <path class="cls-1" d="M47.98.66c.57-.14,1.21-.14,1.92,0,.71.14,1.18.39,1.39.75.29.36.48.87.59,1.55.11.68.18,1.43.21,2.24.04.82.04,1.64,0,2.46-.04.82-.05,1.55-.05,2.19v27.52c0,.46.07.87.21,1.23.29.57.57.93.85,1.07.14.14.41.29.8.43.39.14.77.18,1.12.11.43-.14.84-.23,1.23-.27.39-.03.8-.12,1.23-.27,1.71-.57,3.12-1.26,4.22-2.08,1.11-.82,2.08-1.94,2.94-3.37.36-.57.59-1.16.69-1.76.11-.6.27-1.23.48-1.87.14-.57.25-1.35.32-2.35.07-1,.04-1.85-.11-2.56v-.96c-.14-.71-.3-1.37-.48-1.98-.18-.6-.37-1.19-.59-1.76-.36-.71-.82-1.51-1.39-2.4-.57-.89-1.14-1.55-1.71-1.98-.5-.36-.98-.73-1.44-1.12-.46-.39-.8-.87-1.02-1.44-.36-.71-.52-1.62-.48-2.73.04-1.1.05-2.12.05-3.05,0-.43-.02-.87-.05-1.34-.04-.46.02-.87.16-1.23v-1.07c.14-.71.32-1.21.53-1.5.14-.28.46-.44.96-.48.5-.04.93.02,1.28.16,1,.36,1.89.75,2.67,1.18.78.43,1.57.93,2.35,1.5,2.35,1.57,4.24,3.35,5.66,5.34,1.43,2,2.64,4.49,3.63,7.48.28.78.46,1.57.53,2.35.07.78.21,1.6.43,2.46.07.29.09.59.05.91-.04.32-.02.62.05.91v1.18c.14.36.2.77.16,1.23-.04.46-.09.87-.16,1.23-.07.57-.07,1.07,0,1.5.07.43.03.89-.11,1.39-.14.36-.21.75-.21,1.18s-.07.82-.21,1.18c-.14.78-.3,1.57-.48,2.35-.18.78-.44,1.5-.8,2.14-.28.78-.55,1.51-.8,2.19-.25.68-.55,1.3-.91,1.87-1.42,2.28-3.08,4.31-4.97,6.09-1.89,1.78-4.08,3.24-6.57,4.38-.78.36-1.58.64-2.4.85-.82.21-1.66.5-2.51.85-.28.07-.55.11-.8.11s-.52.04-.8.11c-.85.29-1.78.46-2.78.53-1,.07-1.99.14-2.99.21-.36,0-.75.02-1.18.05-.43.04-.82.02-1.18-.05h-1.28l-2.56-.32c-1.21-.28-2.39-.53-3.53-.75-1.14-.21-2.21-.53-3.21-.96-7.41-3.06-12.65-8.26-15.71-15.6-.43-1-.73-2.01-.91-3.05-.18-1.03-.41-2.12-.69-3.26-.07-.57-.11-1.1-.11-1.6s-.04-1.03-.11-1.6c-.07-3.63.34-6.75,1.23-9.35.89-2.6,2.05-4.93,3.47-7,.43-.64.91-1.28,1.44-1.92.53-.64,1.09-1.21,1.66-1.71.36-.21.64-.5.85-.85.78-.57,1.59-1.1,2.4-1.6.82-.5,1.66-1.03,2.51-1.6.64-.36,1.3-.66,1.98-.91.68-.25,1.41-.52,2.19-.8.93-.36,1.89-.64,2.89-.85,1-.21,2-.46,2.99-.75.57-.14,1.19-.2,1.87-.16.68.04,1.3-.02,1.87-.16h1.18ZM41.68,16.69c-.71-.5-1.58-.55-2.62-.16-1.03.39-1.8.69-2.3.91-1.92,1-3.4,2.32-4.44,3.95-1.03,1.64-1.58,3.92-1.66,6.84.14.21.18.46.11.75-.07.29-.07.53,0,.75.14.36.23.75.27,1.18.04.43.12.82.27,1.18,1,3.14,2.96,5.45,5.88,6.95.29.14.66.3,1.12.48.46.18.93.3,1.39.37.46.07.91.05,1.34-.05.43-.11.78-.34,1.07-.69.36-.57.53-1.35.53-2.35v-14.75c0-1-.02-2.05-.05-3.15-.04-1.1-.34-1.83-.91-2.19Z"/>
    </g>
  </g>
  <g id="buzzkills">
    <g>
      <path class="cls-1" d="M105.72,234.74c.26.78.39,2.12.39,4.01s-.07,3.23-.2,4.01c0,.65-.03,1.21-.1,1.66-.07.46-.1,1.01-.1,1.66-.26,1.04-.39,2.05-.39,3.03s-.13,1.99-.39,3.03c0,.52-.13,1.44-.39,2.74-.39,1.56-.75,3.16-1.08,4.79-.33,1.63-.82,3.16-1.47,4.59-2.35,5.87-5.28,10.95-8.8,15.25s-8.15,7.69-13.88,10.17c-1.17.52-2.38.94-3.62,1.27-1.24.32-2.58.68-4.01,1.08-.78.26-1.6.39-2.44.39s-1.66.06-2.44.2h-1.76c-.78.26-1.83.36-3.13.29-1.3-.07-2.35-.23-3.13-.49h-1.17c-.65-.13-1.37-.23-2.15-.29-.78-.07-1.56-.17-2.35-.29-2.48-.65-4.76-1.3-6.84-1.96-2.09-.65-4.04-1.56-5.87-2.74-.78-.52-1.53-1.04-2.25-1.56-.72-.52-1.4-1.11-2.05-1.76-.39-.26-.78-.52-1.17-.78-.39-.26-.78-.46-1.17-.59-1.17-.39-1.89-.13-2.15.78-.65.91-1.08,1.99-1.27,3.23-.2,1.24-.68,2.18-1.47,2.83-.78.52-1.7.82-2.74.88-1.04.07-2.22.1-3.52.1h-9.39c-.91,0-1.86.03-2.83.1-.98.06-1.86-.03-2.64-.29-1.83-.65-2.83-1.86-3.03-3.62-.2-1.76-.29-3.75-.29-5.96v-123.77c0-1.56.32-2.8.98-3.71.52-.91,1.43-1.5,2.74-1.76.26-.13.55-.16.88-.1.32.07.62.03.88-.1h12.32c2.35,0,4.37.1,6.06.29,1.69.2,2.8,1.21,3.32,3.03.39,1.3.52,3.03.39,5.18-.13,2.15-.2,4.01-.2,5.57v25.61c0,1.44.13,2.67.39,3.71.13.65.26,1.21.39,1.66.13.46.46.75.98.88.26.26.62.39,1.08.39s.81-.06,1.08-.2c.91-.52,1.76-1.08,2.54-1.66.78-.59,1.63-1.2,2.54-1.86,1.69-1.17,3.45-2.18,5.28-3.03,1.82-.85,3.84-1.59,6.06-2.25,1.04-.39,2.08-.62,3.13-.68,1.04-.06,2.08-.23,3.13-.49.91-.26,1.89-.39,2.93-.39h5.08c.39.13.85.17,1.37.1.52-.06,1.04-.03,1.56.1,1.43.39,2.77.68,4.01.88,1.24.2,2.44.56,3.62,1.08,5.99,2.48,10.88,5.67,14.66,9.58,3.78,3.91,6.97,8.8,9.58,14.67.65,1.56,1.2,3.2,1.66,4.89.46,1.7.94,3.46,1.47,5.28.26.91.42,1.79.49,2.64.06.85.23,1.79.49,2.83.26.65.36,1.37.29,2.15-.07.78-.03,1.56.1,2.35v1.37ZM76.78,253.12c.39-1.3.75-2.93,1.08-4.89.32-1.96.52-3.94.59-5.96.06-2.02.06-4.04,0-6.06-.07-2.02-.29-3.75-.68-5.18-.39-1.3-.65-2.54-.78-3.71-.13-1.17-.46-2.28-.98-3.32-1.83-4.56-4.4-8.44-7.72-11.63-3.32-3.19-8.18-4.79-14.57-4.79-.52,0-.98.03-1.37.1-.39.07-.85.1-1.37.1-.91.26-1.76.49-2.54.68-.78.2-1.56.42-2.35.68-3.78,1.7-6.65,4.08-8.6,7.14-1.96,3.06-3.59,6.55-4.89,10.46-.39,1.04-.62,2.12-.68,3.23-.07,1.11-.23,2.18-.49,3.23-.13.39-.2,1.04-.2,1.96-.13.52-.17,1.04-.1,1.56.06.52.03,1.04-.1,1.56-.26,1.04-.33,2.48-.2,4.3.13,1.83.32,3.13.59,3.91.26,1.17.42,2.28.49,3.32.06,1.04.29,2.09.68,3.13,1.17,3.65,2.57,6.81,4.2,9.48,1.63,2.67,3.94,4.92,6.94,6.75,2.08,1.3,4.23,2.22,6.45,2.74.26,0,.55.03.88.1.32.07.68.1,1.08.1.39.13,1.04.23,1.96.29.91.07,1.69.03,2.35-.1,1.3-.26,2.51-.49,3.62-.68,1.11-.2,2.18-.49,3.23-.88,3.65-1.69,6.48-4.04,8.51-7.04,2.02-3,3.68-6.52,4.99-10.56Z"/>
      <path class="cls-1" d="M116.67,189.57h14.66c1.43,0,2.74.07,3.91.2,1.17.13,2.02.59,2.54,1.37.65.78,1.04,1.86,1.17,3.23.13,1.37.2,2.77.2,4.2v42.82c0,4.69.2,9.13.59,13.3.39,4.17,1.56,7.63,3.52,10.36,1.82,2.74,4.76,4.69,8.8,5.87.65.13,1.2.2,1.66.2s1.01.07,1.66.2c.65.13,1.37.2,2.15.2s1.37-.06,1.76-.2c.65-.26,1.2-.32,1.66-.2.46.13.94.07,1.47-.2,2.74-.65,4.89-1.5,6.45-2.54,2.35-1.43,4.2-3.29,5.57-5.57,1.37-2.28,2.35-4.82,2.93-7.62.59-2.8.94-5.93,1.08-9.39.13-3.45.2-7.07.2-10.85v-39.99c0-1.24.26-2.25.78-3.03.65-1.17,1.63-1.86,2.93-2.05,1.3-.2,2.87-.29,4.69-.29h14.08c1.17,0,2.15.26,2.93.78,1.04.65,1.63,1.63,1.76,2.93.13,1.3.2,2.8.2,4.5v87.6c0,1.3-.26,2.28-.78,2.93-.65,1.04-1.63,1.63-2.93,1.76-1.3.13-2.67.2-4.11.2h-10.56c-1.44,0-2.71-.06-3.81-.2-1.11-.13-1.99-.65-2.64-1.56-.26-.39-.49-.98-.68-1.76-.2-.78-.39-1.56-.59-2.35-.2-.78-.42-1.5-.68-2.15-.26-.65-.65-1.04-1.17-1.17-.26-.26-.59-.32-.98-.2-.39.13-.72.26-.98.39-.91.52-1.7,1.11-2.35,1.76-.65.65-1.37,1.24-2.15,1.76-.52.39-1.01.82-1.47,1.27-.46.46-1.01.88-1.66,1.27-3,1.83-6.52,3.26-10.56,4.3-.91.26-1.83.42-2.74.49-.91.06-1.89.23-2.93.49-.52.13-1.08.16-1.66.1-.59-.07-1.14-.03-1.66.1-.39.13-1.21.16-2.44.1-1.24-.07-2.05-.17-2.44-.29-.65,0-1.3-.03-1.96-.1-.65-.07-1.3-.1-1.96-.1-1.56-.39-3.06-.72-4.5-.98-1.44-.26-2.87-.65-4.3-1.17-.65-.26-1.21-.49-1.66-.68-.46-.2-1.01-.42-1.66-.68-4.56-2.47-8.21-5.93-10.95-10.36-1.7-2.74-2.93-6.03-3.71-9.87-.78-3.84-1.27-7.95-1.47-12.32-.2-4.37-.26-8.86-.2-13.49.06-4.63.1-9.22.1-13.79v-26.59c0-1.69-.03-3.68-.1-5.96-.07-2.28.23-3.94.88-4.99.39-.65,1.17-1.24,2.35-1.76.78,0,1.37-.06,1.76-.2Z"/>
      <path class="cls-1" d="M220.3,189.38h71.37c1.17,0,2.35.03,3.52.1,1.17.07,2.08.36,2.74.88.78.52,1.43,1.5,1.96,2.93v2.93c.26.65.36,1.4.29,2.25-.07.85-.1,1.6-.1,2.25v5.08c0,1.7-.26,3.13-.78,4.3-.52,1.04-1.11,1.92-1.76,2.64-.65.72-1.3,1.47-1.96,2.25-.78,1.04-1.63,2.05-2.54,3.03-.91.98-1.76,1.99-2.54,3.03-.26.26-.52.49-.78.68-.26.2-.52.42-.78.68-.65.91-1.4,1.76-2.25,2.54-.85.78-1.6,1.63-2.25,2.54-2.09,2.74-4.3,5.28-6.65,7.62-2.35,2.35-4.56,4.89-6.65,7.63l-1.56,1.56c-.65.91-1.4,1.76-2.25,2.54-.85.78-1.6,1.63-2.25,2.54-.65.91-1.4,1.76-2.25,2.54-.85.78-1.6,1.56-2.25,2.35-.65.78-1.27,1.5-1.86,2.15-.59.65-1.21,1.37-1.86,2.15-.52.65-1.04,1.27-1.56,1.86-.52.59-1.04,1.21-1.56,1.86-.52.52-.98,1.04-1.37,1.56-.39.52-.72,1.11-.98,1.76-.13.26-.23.59-.29.98-.07.39.03.72.29.98.26.78.71,1.21,1.37,1.27.65.07,1.37.23,2.15.49,1.3.26,2.77.36,4.4.29,1.63-.06,3.16-.1,4.59-.1h28.74c2.35,0,4.56.07,6.65.2,2.08.13,3.45,1.11,4.11,2.93.26.65.39,1.37.39,2.15v9.19c0,2.48-.59,4.17-1.76,5.08-.78.65-1.76.98-2.93.98h-83.2c-1.24,0-2.32-.32-3.23-.98-.78-.65-1.24-1.69-1.37-3.13-.13-1.43-.2-2.87-.2-4.3,0-1.82-.03-3.81-.1-5.96-.07-2.15.16-3.94.68-5.38.26-.78.59-1.53.98-2.25.39-.71.85-1.4,1.37-2.05,1.04-1.17,2.08-2.31,3.13-3.42,1.04-1.11,2.08-2.31,3.13-3.62.65-.65,1.17-1.11,1.56-1.37,1.82-2.47,3.78-4.76,5.87-6.84,2.08-2.08,4.04-4.3,5.87-6.65.52-.65,1.04-1.24,1.56-1.76.52-.52.98-1.11,1.37-1.76.65-.91,1.4-1.73,2.25-2.44.85-.72,1.59-1.6,2.25-2.64.26-.26.52-.49.78-.68.26-.2.52-.42.78-.68.65-1.04,1.4-1.96,2.25-2.74.85-.78,1.59-1.63,2.25-2.54.26-.39.62-.78,1.08-1.17.46-.39.88-.78,1.27-1.17,1.04-1.43,2.15-2.74,3.32-3.91,1.17-1.17,2.28-2.41,3.32-3.71.65-.91,1.4-1.76,2.25-2.54.85-.78,1.4-1.76,1.66-2.93.26-.78.16-1.37-.29-1.76-.46-.39-.88-.71-1.27-.98-1.44-.65-3.16-.94-5.18-.88-2.02.07-3.94.1-5.77.1h-21.12c-1.56,0-3.23.03-4.99.1-1.76.07-3.16-.23-4.2-.88-1.17-.65-1.83-1.89-1.96-3.71-.13-1.82-.2-3.65-.2-5.47,0-.65-.03-1.37-.1-2.15-.07-.78-.03-1.5.1-2.15v-1.56c.13-.39.23-.85.29-1.37.06-.52.23-.91.49-1.17.78-1.04,1.63-1.63,2.54-1.76.26-.13.59-.16.98-.1.39.07.71-.03.98-.29Z"/>
      <path class="cls-1" d="M317.87,189.38h71.37c1.17,0,2.35.03,3.52.1,1.17.07,2.08.36,2.74.88.78.52,1.43,1.5,1.96,2.93v2.93c.26.65.36,1.4.29,2.25-.07.85-.1,1.6-.1,2.25v5.08c0,1.7-.26,3.13-.78,4.3-.52,1.04-1.11,1.92-1.76,2.64-.65.72-1.3,1.47-1.96,2.25-.78,1.04-1.63,2.05-2.54,3.03-.91.98-1.76,1.99-2.54,3.03-.26.26-.52.49-.78.68-.26.2-.52.42-.78.68-.65.91-1.4,1.76-2.25,2.54-.85.78-1.6,1.63-2.25,2.54-2.09,2.74-4.3,5.28-6.65,7.62-2.35,2.35-4.56,4.89-6.65,7.63l-1.56,1.56c-.65.91-1.4,1.76-2.25,2.54-.85.78-1.6,1.63-2.25,2.54-.65.91-1.4,1.76-2.25,2.54-.85.78-1.6,1.56-2.25,2.35-.65.78-1.27,1.5-1.86,2.15-.59.65-1.21,1.37-1.86,2.15-.52.65-1.04,1.27-1.56,1.86-.52.59-1.04,1.21-1.56,1.86-.52.52-.98,1.04-1.37,1.56-.39.52-.72,1.11-.98,1.76-.13.26-.23.59-.29.98-.07.39.03.72.29.98.26.78.71,1.21,1.37,1.27.65.07,1.37.23,2.15.49,1.3.26,2.77.36,4.4.29,1.63-.06,3.16-.1,4.59-.1h28.74c2.35,0,4.56.07,6.65.2,2.08.13,3.45,1.11,4.11,2.93.26.65.39,1.37.39,2.15v9.19c0,2.48-.59,4.17-1.76,5.08-.78.65-1.76.98-2.93.98h-83.2c-1.24,0-2.32-.32-3.23-.98-.78-.65-1.24-1.69-1.37-3.13-.13-1.43-.2-2.87-.2-4.3,0-1.82-.03-3.81-.1-5.96-.07-2.15.16-3.94.68-5.38.26-.78.59-1.53.98-2.25.39-.71.85-1.4,1.37-2.05,1.04-1.17,2.08-2.31,3.13-3.42,1.04-1.11,2.08-2.31,3.13-3.62.65-.65,1.17-1.11,1.56-1.37,1.82-2.47,3.78-4.76,5.87-6.84,2.08-2.08,4.04-4.3,5.87-6.65.52-.65,1.04-1.24,1.56-1.76.52-.52.98-1.11,1.37-1.76.65-.91,1.4-1.73,2.25-2.44.85-.72,1.59-1.6,2.25-2.64.26-.26.52-.49.78-.68.26-.2.52-.42.78-.68.65-1.04,1.4-1.96,2.25-2.74.85-.78,1.59-1.63,2.25-2.54.26-.39.62-.78,1.08-1.17.46-.39.88-.78,1.27-1.17,1.04-1.43,2.15-2.74,3.32-3.91,1.17-1.17,2.28-2.41,3.32-3.71.65-.91,1.4-1.76,2.25-2.54.85-.78,1.4-1.76,1.66-2.93.26-.78.16-1.37-.29-1.76-.46-.39-.88-.71-1.27-.98-1.44-.65-3.16-.94-5.18-.88-2.02.07-3.94.1-5.77.1h-21.12c-1.56,0-3.23.03-4.99.1-1.76.07-3.16-.23-4.2-.88-1.17-.65-1.83-1.89-1.96-3.71-.13-1.82-.2-3.65-.2-5.47,0-.65-.03-1.37-.1-2.15-.07-.78-.03-1.5.1-2.15v-1.56c.13-.39.23-.85.29-1.37.06-.52.23-.91.49-1.17.78-1.04,1.63-1.63,2.54-1.76.26-.13.59-.16.98-.1.39.07.71-.03.98-.29Z"/>
      <path class="cls-1" d="M536.38,193.87c-.07-1.17-.37-2.08-.88-2.74-.4-.65-.92-1.04-1.57-1.17-.65-.13-1.37-.33-2.15-.59h-1.56c-.66-.13-1.47-.16-2.45-.1-.98.07-1.86.1-2.64.1h-9.77c-.27.13-.62.17-1.08.1-.46-.06-.82-.03-1.07.1-1.44.26-2.55.85-3.33,1.76-.52.78-.78,1.82-.78,3.13v86.42c0,1.56.03,3.03.1,4.4.06,1.37.49,2.51,1.27,3.42.52.65,1.33,1.04,2.44,1.17,1.11.13,2.25.2,3.42.2h10.95c1.04,0,2.02.03,2.94.1.91.06,1.76-.03,2.54-.3,2.21-.65,3.39-1.89,3.52-3.71.13-1.83.19-4.04.19-6.65v-81.93c0-1.3-.03-2.54-.09-3.71Z"/>
      <path class="cls-1" d="M571.37,283.32c.07,2.02-.23,3.56-.88,4.6-.65,1.04-1.82,1.76-3.52,2.15-.78.26-1.66.32-2.63.19-.98-.12-1.93-.19-2.84-.19h-9.39c-1.43,0-2.73-.07-3.91-.2-1.17-.13-2.15-.52-2.93-1.17-.78-.65-1.21-1.66-1.27-3.03-.07-1.37-.1-2.77-.1-4.21v-89.44c0-4.75,2.03-9.28,5.57-12.44,4.4-3.94,7.86-8.86,10.44-14.69,1.54-3.47,3.32-7.57,4.88-11.4.78-1.91,3.19-2.76,4.83-1.52.11.08.2.17.29.26.78.91,1.2,2.12,1.27,3.62.06,1.5.1,3.03.1,4.59v117.52c0,1.56.03,3.35.09,5.37Z"/>
      <path class="cls-1" d="M583.98,150.86h14.27c1.3,0,2.54.07,3.71.2,1.17.13,2.08.52,2.74,1.17.78.91,1.2,2.12,1.27,3.62.06,1.5.1,3.03.1,4.59v117.51c0,1.56.03,3.36.1,5.38.06,2.02-.23,3.55-.88,4.59-.65,1.04-1.83,1.76-3.52,2.15-.78.26-1.66.32-2.64.2s-1.92-.2-2.83-.2h-9.39c-1.44,0-2.74-.06-3.91-.2-1.17-.13-2.15-.52-2.93-1.17-.78-.65-1.21-1.66-1.27-3.03-.07-1.37-.1-2.77-.1-4.2v-117.32c0-1.69-.03-3.71-.1-6.06-.07-2.35.23-4.04.88-5.08.26-.52.62-.91,1.08-1.17.46-.26.94-.52,1.47-.78.26,0,.59-.03.98-.1.39-.06.71-.1.98-.1Z"/>
      <path class="cls-1" d="M653.2,186.64c9.78-.26,18.28.82,25.52,3.23,7.23,2.41,12.74,6.55,16.52,12.42.91,1.44,1.73,2.9,2.44,4.4.71,1.5,1.33,3.16,1.86,4.99.26.78.39,1.63.39,2.54s-.13,1.7-.39,2.35c-.52.78-1.24,1.3-2.15,1.56-.65.26-1.44.39-2.35.39h-11.34c-.91,0-1.83.03-2.74.1-.91.07-1.76-.03-2.54-.29-1.3-.26-2.28-.78-2.93-1.56-.65-.78-1.24-1.59-1.76-2.44-.52-.85-1.01-1.76-1.47-2.74-.46-.98-1.14-1.79-2.05-2.44-1.3-1.04-2.58-1.82-3.81-2.35-1.24-.52-2.77-.98-4.59-1.37-.91-.26-2.25-.46-4.01-.59-1.76-.13-3.1-.06-4.01.2h-1.37c-.65.13-1.27.23-1.86.29-.59.07-1.21.17-1.86.29-2.22.65-4.01,1.53-5.38,2.64-1.37,1.11-2.32,2.77-2.83,4.99-.26.91-.26,1.76,0,2.54.26.78.52,1.44.78,1.96.91,1.56,1.99,2.8,3.23,3.71,1.24.91,2.7,1.7,4.4,2.35,2.47,1.04,5.18,1.92,8.11,2.64,2.93.72,5.93,1.37,8.99,1.96,3.06.59,6.06,1.24,8.99,1.96,2.93.72,5.7,1.6,8.31,2.64,1.17.52,2.31.95,3.42,1.27,1.11.33,2.18.82,3.23,1.47,2.47,1.56,4.72,3.26,6.75,5.08,2.02,1.83,3.62,4.11,4.79,6.84.39.91.71,1.83.98,2.74.26.91.52,1.89.78,2.93.13.78.23,1.99.29,3.62.06,1.63.03,2.9-.1,3.81v.98c-.26.78-.42,1.53-.49,2.25-.07.72-.17,1.4-.29,2.05-.91,3.91-2.35,7.37-4.3,10.36-2.09,3.13-4.63,5.67-7.63,7.63-3,1.96-6.39,3.65-10.17,5.08-1.44.65-2.97,1.11-4.6,1.37-1.63.26-3.23.59-4.79.98-1.17.26-2.38.42-3.62.49-1.24.06-2.44.23-3.62.49h-3.52c-.78.26-2.12.39-4.01.39s-3.23-.13-4.01-.39c-.39,0-.82-.03-1.27-.1-.46-.07-.95-.1-1.47-.1-1.56-.26-3.13-.46-4.69-.59-1.56-.13-3.06-.39-4.5-.78-5.08-1.43-9.58-3.09-13.49-4.99-3.91-1.89-7.23-4.72-9.97-8.5-1.83-2.48-3.39-5.34-4.69-8.6-.26-.78-.52-1.82-.78-3.13-.26-.65-.46-1.56-.59-2.74-.13-1.17-.07-2.15.2-2.93.39-.91,1.04-1.56,1.96-1.96.65-.26,1.43-.39,2.35-.39h15.25c1.04,0,1.96.13,2.74.39,1.43.52,2.38,1.37,2.83,2.54.46,1.17,1.01,2.41,1.66,3.71.26.65.75,1.5,1.47,2.54.71,1.04,1.34,1.7,1.86,1.96,1.56,1.3,3.06,2.32,4.5,3.03,1.43.72,3.26,1.4,5.47,2.05.65.26,1.3.36,1.96.29.65-.06,1.3-.03,1.96.1,1.04.26,2.18.36,3.42.29,1.24-.06,2.31-.23,3.23-.49.65-.13,1.27-.2,1.86-.2s1.2-.13,1.86-.39c1.82-.65,3.49-1.43,4.99-2.35,1.5-.91,2.7-2.08,3.62-3.52.65-1.04,1.17-2.67,1.56-4.89.26-.91.26-1.76,0-2.54-.26-.78-.52-1.43-.78-1.96-.91-1.82-2.05-3.19-3.42-4.11-1.37-.91-2.97-1.76-4.79-2.54-2.48-1.04-5.08-1.89-7.82-2.54-2.74-.65-5.47-1.37-8.21-2.15-1.04-.26-2.12-.46-3.23-.59-1.11-.13-2.18-.32-3.23-.59-4.17-1.17-8.15-2.31-11.93-3.42-3.78-1.11-7.23-2.77-10.36-4.99-3.65-2.61-6.32-6.13-8.02-10.56-.26-.91-.52-2.15-.78-3.72-.26-.91-.46-2.02-.59-3.32-.13-1.3-.07-2.47.2-3.52.26-.65.32-1.2.2-1.66-.13-.46-.07-1.01.2-1.66.26-1.43.55-2.77.88-4.01.32-1.24.75-2.44,1.27-3.62,1.69-3.78,4.04-6.84,7.04-9.19,3-2.35,6.39-4.23,10.17-5.67,1.43-.65,2.93-1.14,4.5-1.47,1.56-.32,3.19-.68,4.89-1.08.78-.26,1.56-.42,2.35-.49.78-.06,1.56-.16,2.35-.29,1.04-.13,2.15-.2,3.32-.2s2.28-.06,3.32-.2Z"/>
    </g>
  </g>
  <g id="dandy">
    <g>
      <path class="cls-1" d="M182.98,128.07v5.38c0,1.76-.39,3.16-1.17,4.2-.65.65-1.5,1.08-2.54,1.27-1.04.2-2.22.29-3.52.29h-10.75c-1.3,0-2.51-.03-3.62-.1-1.11-.06-1.99-.36-2.64-.88-.91-.65-1.44-1.5-1.56-2.54-.13-1.04-.39-2.08-.78-3.13-.26-.26-.49-.49-.68-.68s-.42-.42-.68-.68c-1.44,0-2.48.33-3.13.98s-1.3,1.3-1.96,1.96c-.91.65-1.76,1.21-2.54,1.66-.78.46-1.63,1.01-2.54,1.66-.52.26-1.08.52-1.66.78-.59.26-1.21.52-1.86.78-1.83.65-3.78,1.24-5.87,1.76-.65.26-1.24.39-1.76.39s-1.04.06-1.56.2c-.65,0-1.21.03-1.66.1-.46.06-1.01.1-1.66.1h-1.76c-.78.26-1.96.36-3.52.29-1.56-.07-2.67-.23-3.32-.49-.91-.26-1.73-.36-2.44-.29-.72.06-1.47-.03-2.25-.29-1.56-.52-3.1-1.01-4.6-1.47-1.5-.46-2.97-1.01-4.4-1.66-4.56-1.96-8.64-4.99-12.22-9.09-3.59-4.11-6.42-8.44-8.51-13-.65-1.43-1.17-2.83-1.56-4.2-.39-1.37-.85-2.77-1.37-4.2-.13-.52-.2-1.01-.2-1.47s-.13-1.01-.39-1.66c-.26-1.04-.49-2.18-.68-3.42-.2-1.24-.42-2.51-.68-3.81-.13-.39-.17-.85-.1-1.37.06-.52.03-.98-.1-1.37v-1.86c0-.59-.07-1.2-.2-1.86-.13-.65-.2-1.4-.2-2.25s.06-1.53.2-2.05c.13-.65.2-1.27.2-1.86v-1.86c.13-.65.16-1.27.1-1.86-.07-.59.03-1.2.29-1.86.26-1.43.49-2.8.68-4.11.2-1.3.49-2.61.88-3.91.52-1.56.98-3.06,1.37-4.5.39-1.43.91-2.87,1.56-4.3,1.82-3.91,4.11-7.63,6.84-11.15.26-.39.62-.75,1.08-1.08.46-.32.81-.68,1.08-1.08.52-.65,1.04-1.24,1.56-1.76.52-.52,1.11-1.04,1.76-1.56.52-.26.98-.62,1.37-1.08.39-.46.85-.81,1.37-1.08,3.26-2.21,7.04-4.04,11.34-5.47.91-.26,1.86-.46,2.83-.59.98-.13,1.99-.32,3.03-.59.91-.26,2.08-.42,3.52-.49,1.43-.06,2.87-.1,4.3-.1s2.84.07,4.2.2c1.37.13,2.51.33,3.42.59,1.96.65,3.84,1.24,5.67,1.76,1.82.52,3.52,1.24,5.08,2.15.91.65,1.76,1.27,2.54,1.86.78.59,1.63,1.21,2.54,1.86.52.39,1.27.91,2.25,1.56.98.65,1.92.65,2.83,0,.52-.26.78-.71.78-1.37s.13-1.3.39-1.96v-1.96c.13-.39.2-.85.2-1.37V10.95c0-1.43-.03-3.03-.1-4.79-.07-1.76.23-3.09.88-4.01.52-1.04,1.5-1.69,2.93-1.96.26-.13.52-.16.78-.1.26.07.52.03.78-.1h13.88c1.56,0,3,.07,4.3.2,1.3.13,2.28.65,2.93,1.56.65,1.04.98,2.38.98,4.01v122.3ZM156.38,89.75c.13-.52.16-1.08.1-1.66-.07-.59-.1-1.14-.1-1.66,0-1.3-.07-2.61-.2-3.91-.13-1.3-.33-2.47-.59-3.52-.26-1.43-.49-2.74-.68-3.91s-.56-2.28-1.08-3.32c-1.83-4.69-4.47-8.41-7.92-11.15-3.46-2.74-8.44-4.11-14.96-4.11-.78,0-1.83.13-3.13.39-1.04.26-1.99.49-2.83.68-.85.2-1.66.49-2.44.88-3.52,1.44-6.26,3.65-8.21,6.65-1.96,3-3.52,6.39-4.69,10.17-.39,1.3-.65,2.61-.78,3.91-.13,1.3-.39,2.67-.78,4.11v2.74c-.26,1.17-.33,2.77-.2,4.79.13,2.02.32,3.49.59,4.4,0,.39.03.75.1,1.08.06.33.1.62.1.88.26,1.04.49,2.02.68,2.93.2.91.42,1.89.68,2.93,2.21,6.78,5.99,11.8,11.34,15.06,1.69,1.17,4.04,2.09,7.04,2.74.52.13,1.3.2,2.35.2.39.13,1.01.23,1.86.29.85.07,1.53.03,2.05-.1,1.04-.26,2.08-.46,3.13-.59,1.04-.13,2.08-.39,3.13-.78,3.26-1.43,5.87-3.26,7.82-5.48,1.96-2.21,3.65-5.02,5.08-8.41.52-1.17.91-2.38,1.17-3.62.26-1.24.52-2.57.78-4.01.13-.65.16-1.27.1-1.86-.07-.59.03-1.2.29-1.86.13-.39.2-.85.2-1.37v-3.52Z"/>
      <path class="cls-1" d="M284.65,131.39c.26,1.44.42,2.87.49,4.3.06,1.44-.62,2.41-2.05,2.93-.78.39-1.7.59-2.74.59h-13.69c-1.17,0-2.32-.03-3.42-.1-1.11-.06-1.99-.36-2.64-.88-.91-.52-1.6-1.27-2.05-2.25-.46-.98-1.08-1.79-1.86-2.44-.26-.26-.59-.49-.98-.68-.39-.2-.91-.23-1.56-.1-.65.26-1.27.59-1.86.98-.59.39-1.21.72-1.86.98-.65.52-1.37.98-2.15,1.37l-2.35,1.17c-1.7.78-3.46,1.4-5.28,1.86-1.83.46-3.71.94-5.67,1.47-.91.26-1.79.42-2.64.49-.85.06-1.73.16-2.64.29-.39,0-.78.03-1.17.1-.39.06-.78.1-1.17.1h-2.15c-1.3.26-2.61.26-3.91,0h-1.76c-.91-.26-1.79-.36-2.64-.29-.85.06-1.66-.03-2.44-.29-1.3-.26-2.54-.49-3.72-.68-1.17-.2-2.28-.56-3.32-1.08-3.78-1.43-7.01-3.29-9.68-5.57-2.67-2.28-4.79-5.31-6.35-9.09-.39-.91-.75-1.89-1.08-2.93-.33-1.04-.62-2.15-.88-3.32-.26-.65-.36-1.3-.29-1.96.06-.65.03-1.3-.1-1.96-.13-.39-.23-1.2-.29-2.44-.07-1.24-.03-2.12.1-2.64.26-1.3.39-2.41.39-3.32.39-1.43.78-2.9,1.17-4.4.39-1.5.91-2.83,1.56-4.01,2.21-3.78,4.76-6.65,7.63-8.6,2.87-1.96,6.52-3.65,10.95-5.08,1.69-.65,3.45-1.11,5.28-1.37,1.82-.26,3.65-.59,5.47-.98,1.04-.26,2.15-.42,3.32-.49,1.17-.06,2.35-.23,3.52-.49.91-.26,1.82-.36,2.74-.29.91.07,1.89-.03,2.93-.29.91-.26,1.82-.39,2.74-.39s1.89-.13,2.93-.39c2.74-.65,5.25-1.2,7.53-1.66,2.28-.46,4.33-1.59,6.16-3.42,1.17-1.17,1.96-2.47,2.35-3.91.13-.39.16-.71.1-.98-.07-.26-.03-.52.1-.78.13-.26.2-.65.2-1.17v-1.17c-.13-.52-.23-1.04-.29-1.56-.07-.52-.17-.98-.29-1.37-1.3-3.91-4.04-6.58-8.21-8.02-1.17-.39-2.58-.68-4.2-.88-1.63-.2-3.29-.26-4.99-.2-1.7.07-3.32.23-4.89.49-1.56.26-2.93.59-4.11.98-.78.26-1.53.62-2.25,1.08-.72.46-1.4.95-2.05,1.47-.65.52-1.34,1.24-2.05,2.15-.72.91-1.21,1.76-1.47,2.54-.65,1.3-1.21,2.54-1.66,3.72-.46,1.17-1.4,1.96-2.84,2.35-1.04.26-2.15.39-3.32.39h-10.95c-.65,0-1.3.03-1.96.1-.65.07-1.24.03-1.76-.1h-1.76c-.26-.13-.59-.2-.98-.2s-.72-.13-.98-.39c-1.04-.26-1.76-1.11-2.15-2.54-.13-.65-.13-1.3,0-1.96.13-.65.26-1.24.39-1.76.39-1.43.81-2.77,1.27-4.01.46-1.24,1.01-2.38,1.66-3.42.39-.65.78-1.3,1.17-1.96.39-.65.78-1.3,1.17-1.96,1.04-1.43,2.35-2.8,3.91-4.11.26-.13.65-.46,1.17-.98.65-.52,1.24-.98,1.76-1.37.52-.39,1.11-.78,1.76-1.17,2.21-1.43,4.56-2.57,7.04-3.42,2.47-.85,5.02-1.66,7.63-2.44,1.56-.39,3.19-.65,4.89-.78,1.69-.13,3.39-.39,5.08-.78.52-.13,1.33-.13,2.44,0,1.11.13,1.79.07,2.05-.2,5.34-.13,10.46.07,15.35.59,4.89.52,9.32,1.5,13.3,2.93,3.97,1.44,7.4,3.36,10.27,5.77,2.87,2.41,5.08,5.51,6.65,9.29.91,2.22,1.43,4.76,1.56,7.63.13,2.87.2,5.8.2,8.8v51.13c0,2.54.26,4.86.78,6.94.13.39.2.82.2,1.27s.06.88.2,1.27ZM255.91,101.28c.13-.65.2-1.4.2-2.25s-.07-1.59-.2-2.25c-.26-.78-.39-1.5-.39-2.15s-.26-1.17-.78-1.56c-.65-.52-1.63-.78-2.93-.78-.52.13-.98.23-1.37.29-.39.07-.85.17-1.37.29-.91.26-1.89.46-2.93.59-1.04.13-2.09.33-3.13.59-.39.13-.98.2-1.76.2-1.7.39-3.39.65-5.08.78-1.7.13-3.32.46-4.89.98-1.04.26-2.02.49-2.93.68-.91.2-1.83.49-2.74.88-2.74,1.17-5.05,2.93-6.94,5.28-1.89,2.35-2.58,5.61-2.05,9.78.26,2.22.98,4.04,2.15,5.48.91,1.44,2.28,2.58,4.11,3.42,1.82.85,3.81,1.47,5.96,1.86,2.15.39,4.43.49,6.84.29,2.41-.2,4.66-.62,6.75-1.27,3.39-1.04,6.06-2.7,8.02-4.99,1.96-2.28,3.45-5.11,4.5-8.51.26-.91.42-1.86.49-2.83.06-.98.23-1.99.49-3.03v-1.76Z"/>
      <path class="cls-1" d="M348.2,35.78c7.82-.26,14.34.85,19.55,3.32,5.21,2.48,9.32,6.13,12.32,10.95.91,1.44,1.63,2.97,2.15,4.59.52,1.63,1.04,3.29,1.56,4.99.26,1.04.42,2.02.49,2.93.06.91.23,1.83.49,2.74,0,.78.06,1.3.2,1.56.26,1.83.39,3.71.39,5.67v54.75c0,2.48-.03,4.86-.1,7.14-.07,2.28-1.01,3.75-2.83,4.4-.78.26-1.7.39-2.74.39h-13.69c-1.56,0-2.97-.1-4.2-.29-1.24-.2-2.18-.75-2.83-1.66-.52-.78-.82-1.79-.88-3.03-.07-1.24-.1-2.57-.1-4.01v-42.82c0-4.82-.2-9.29-.59-13.39-.39-4.11-1.56-7.59-3.52-10.46-1.83-2.61-4.5-4.43-8.02-5.47-.65-.26-1.34-.39-2.05-.39s-1.47-.13-2.25-.39c-.65-.13-1.47-.16-2.44-.1-.98.07-1.73.17-2.25.29-.52.13-.98.2-1.37.2s-.78.07-1.17.2c-3,.78-5.41,1.83-7.23,3.13-4.17,3-6.65,7.37-7.43,13.1-.78,5.74-1.17,12.19-1.17,19.36v39.89c0,1.17-.2,2.15-.59,2.93-.65,1.44-1.7,2.28-3.13,2.54-1.44.26-3.2.39-5.28.39h-9.78c-1.44,0-2.87-.06-4.3-.2-1.44-.13-2.48-.59-3.13-1.37-.91-1.17-1.34-2.87-1.27-5.08.06-2.21.1-4.3.1-6.26V46.73c0-1.43.03-2.74.1-3.91.06-1.17.42-2.15,1.08-2.93.26-.39.68-.68,1.27-.88.59-.2,1.2-.36,1.86-.49h.98c.65-.13,1.33-.2,2.05-.2h10.27c1.04,0,2.05.03,3.03.1.98.07,1.86.23,2.64.49.91.39,1.53.98,1.86,1.76.32.78.62,1.7.88,2.74.13.52.16.98.1,1.37-.07.39.03.78.29,1.17.26.65.49,1.04.68,1.17.2.13.49.33.88.59,1.43.13,2.61-.36,3.52-1.47.91-1.11,1.89-1.99,2.93-2.64,3.52-2.61,7.43-4.69,11.73-6.26,1.17-.39,2.38-.65,3.62-.78,1.24-.13,2.57-.32,4.01-.59.39-.13.98-.16,1.76-.1.78.07,1.3.03,1.56-.1Z"/>
      <path class="cls-1" d="M493.47,128.07v5.38c0,1.76-.39,3.16-1.17,4.2-.65.65-1.5,1.08-2.54,1.27-1.04.2-2.22.29-3.52.29h-10.75c-1.3,0-2.51-.03-3.62-.1-1.11-.06-1.99-.36-2.64-.88-.91-.65-1.44-1.5-1.56-2.54-.13-1.04-.39-2.08-.78-3.13-.26-.26-.49-.49-.68-.68-.2-.2-.42-.42-.68-.68-1.44,0-2.48.33-3.13.98-.65.65-1.3,1.3-1.96,1.96-.91.65-1.76,1.21-2.54,1.66-.78.46-1.63,1.01-2.54,1.66-.52.26-1.08.52-1.66.78-.59.26-1.21.52-1.86.78-1.83.65-3.78,1.24-5.87,1.76-.65.26-1.24.39-1.76.39s-1.04.06-1.56.2c-.65,0-1.21.03-1.66.1-.46.06-1.01.1-1.66.1h-1.76c-.78.26-1.96.36-3.52.29-1.56-.07-2.67-.23-3.32-.49-.91-.26-1.73-.36-2.44-.29-.72.06-1.47-.03-2.25-.29-1.56-.52-3.1-1.01-4.59-1.47-1.5-.46-2.97-1.01-4.4-1.66-4.56-1.96-8.64-4.99-12.22-9.09-3.59-4.11-6.42-8.44-8.51-13-.65-1.43-1.17-2.83-1.56-4.2-.39-1.37-.85-2.77-1.37-4.2-.13-.52-.2-1.01-.2-1.47s-.13-1.01-.39-1.66c-.26-1.04-.49-2.18-.68-3.42-.2-1.24-.42-2.51-.68-3.81-.13-.39-.17-.85-.1-1.37.06-.52.03-.98-.1-1.37v-1.86c0-.59-.07-1.2-.2-1.86-.13-.65-.2-1.4-.2-2.25s.06-1.53.2-2.05c.13-.65.2-1.27.2-1.86v-1.86c.13-.65.16-1.27.1-1.86-.07-.59.03-1.2.29-1.86.26-1.43.49-2.8.68-4.11.2-1.3.49-2.61.88-3.91.52-1.56.98-3.06,1.37-4.5.39-1.43.91-2.87,1.56-4.3,1.82-3.91,4.11-7.63,6.84-11.15.26-.39.62-.75,1.08-1.08.46-.32.81-.68,1.08-1.08.52-.65,1.04-1.24,1.56-1.76.52-.52,1.11-1.04,1.76-1.56.52-.26.98-.62,1.37-1.08.39-.46.85-.81,1.37-1.08,3.26-2.21,7.04-4.04,11.34-5.47.91-.26,1.86-.46,2.83-.59.98-.13,1.99-.32,3.03-.59.91-.26,2.08-.42,3.52-.49,1.43-.06,2.87-.1,4.3-.1s2.83.07,4.2.2c1.37.13,2.51.33,3.42.59,1.96.65,3.84,1.24,5.67,1.76,1.82.52,3.52,1.24,5.08,2.15.91.65,1.76,1.27,2.54,1.86.78.59,1.63,1.21,2.54,1.86.52.39,1.27.91,2.25,1.56.98.65,1.92.65,2.83,0,.52-.26.78-.71.78-1.37s.13-1.3.39-1.96v-1.96c.13-.39.2-.85.2-1.37V10.95c0-1.43-.03-3.03-.1-4.79-.07-1.76.23-3.09.88-4.01.52-1.04,1.5-1.69,2.93-1.96.26-.13.52-.16.78-.1.26.07.52.03.78-.1h13.88c1.56,0,3,.07,4.3.2,1.3.13,2.28.65,2.93,1.56.65,1.04.98,2.38.98,4.01v122.3ZM466.88,89.75c.13-.52.16-1.08.1-1.66-.07-.59-.1-1.14-.1-1.66,0-1.3-.07-2.61-.2-3.91-.13-1.3-.33-2.47-.59-3.52-.26-1.43-.49-2.74-.68-3.91s-.56-2.28-1.08-3.32c-1.83-4.69-4.47-8.41-7.92-11.15-3.46-2.74-8.44-4.11-14.96-4.11-.78,0-1.83.13-3.13.39-1.04.26-1.99.49-2.84.68-.85.2-1.66.49-2.44.88-3.52,1.44-6.26,3.65-8.21,6.65-1.96,3-3.52,6.39-4.69,10.17-.39,1.3-.65,2.61-.78,3.91-.13,1.3-.39,2.67-.78,4.11v2.74c-.26,1.17-.33,2.77-.2,4.79.13,2.02.32,3.49.59,4.4,0,.39.03.75.1,1.08.06.33.1.62.1.88.26,1.04.49,2.02.68,2.93.2.91.42,1.89.68,2.93,2.21,6.78,5.99,11.8,11.34,15.06,1.69,1.17,4.04,2.09,7.04,2.74.52.13,1.3.2,2.35.2.39.13,1.01.23,1.86.29.85.07,1.53.03,2.05-.1,1.04-.26,2.08-.46,3.13-.59,1.04-.13,2.08-.39,3.13-.78,3.26-1.43,5.87-3.26,7.82-5.48,1.96-2.21,3.65-5.02,5.08-8.41.52-1.17.91-2.38,1.17-3.62.26-1.24.52-2.57.78-4.01.13-.65.16-1.27.1-1.86-.07-.59.03-1.2.29-1.86.13-.39.2-.85.2-1.37v-3.52Z"/>
      <path class="cls-1" d="M598.07,42.83c-.26,1.04-.58,2.08-.97,3.13-.4,1.04-.79,2.08-1.18,3.12-1.82,4.57-3.58,9.23-5.28,13.98-1.69,4.76-3.45,9.42-5.28,13.98-.78,1.96-1.5,3.95-2.15,5.97-.65,2.02-1.37,4.01-2.15,5.96-.65,1.83-1.3,3.59-1.95,5.28-.66,1.7-1.31,3.46-1.96,5.28-2.61,6.52-5.05,13.07-7.33,19.65-2.28,6.58-4.73,13.07-7.33,19.46-.39.91-.69,1.75-.88,2.54-.2.78-.49,1.56-.88,2.34-1.05,2.48-2.02,4.89-2.94,7.24-.01.03-.03.06-.03.09-.9,2.3-1.86,4.52-2.89,6.64-.26.54-.54,1.07-.83,1.59-.57,1.03-1.18,2.03-1.84,2.98-.34.48-.68.94-1.04,1.4h-.01c-.36.46-.73.9-1.13,1.33h-.01c-.2.22-.4.44-.62.65-1.05,1.05-2.22,2.01-3.51,2.9-.64.44-1.3.85-1.98,1.23,0,.01-.01.01-.01.01-1.14.62-2.34,1.16-3.6,1.61-2.02.72-4.2,1.4-6.54,2.05-1.06.26-2.1.39-3.15.39-.78-.01-1.39.1-2.29.11-.53,0-2.84-.08-3.37-.08l-6.25.36c-1.44,0-2.89-.42-4.26-.5-.96-.05-2.14-.05-3.66-.18h-.01c-.64-.11-1.69-.17-2.33-.12-.92.06-2.1.13-2.89.13l-13.15.33c-.94,0-20.13-.36-22.53-.42h-.04c-.85.06-1.74.09-2.67.09h-7.94c-.81,0-1.55-.02-2.26-.07-.34-.02-.67-.02-1.01,0-.75.05-1.54.07-2.35.07h-3.94c-1.09,0-2.09-.05-2.97-.11-1.29-.09-3.4-.08-4.69.01-.88.06-1.81.1-2.78.1h-1.36c-2.33,0-4.22,1.89-4.22,4.22v32.53c0,.91-.07,1.89-.2,2.93-.13,1.05-.07,2.02.2,2.93v1.76c.26.66.45,1.34.58,2.06.13.71.52,1.2,1.18,1.46.39.27.91.3,1.56.1s1.11-.42,1.37-.68c1.3-.91,2.44-1.96,3.42-3.13.98-1.18,1.99-2.28,3.03-3.33,1.04-1.04,2.15-2.11,3.32-3.22,1.18-1.11,2.22-2.31,3.13-3.62.39-.26.85-.65,1.37-1.17.65-.65,1.3-1.34,1.96-2.06.65-.71,1.3-1.4,1.95-2.05l4.5-4.5c.26-.52.62-.94,1.07-1.27.46-.32.88-.75,1.28-1.27,1.04-1.3,2.18-2.44,3.42-3.42,1.24-.98,2.77-1.66,4.59-2.05.65-.13,1.57-.2,2.74-.2.52-.13,1.04-.16,1.56-.1.52.07,1.11.1,1.76.1h6.46c1.04,0,2.31-.06,3.81-.19,1.5-.13,2.77-.07,3.81.19h2.15c.65.26,1.3.43,1.96.49.65.07,1.1.36,1.37.88.26.39.29.91.09,1.56-.19.66-.42,1.11-.68,1.37-.78,1.31-1.76,2.45-2.93,3.42-1.18.98-2.28,1.99-3.33,3.04-.91.91-1.79,1.82-2.64,2.73-.85.92-1.79,1.76-2.83,2.55-.66.52-1.21,1.07-1.66,1.66-.46.58-1.02,1.14-1.67,1.66-.65.39-1.24.91-1.76,1.56-.52.66-1.1,1.24-1.76,1.76l-7.42,7.43c-.92.78-1.73,1.54-2.45,2.25-.72.72-1.4,1.6-2.05,2.64-.26.39-.52.88-.78,1.47-.27.58-.27,1.2,0,1.86.26,1.43.74,2.6,1.46,3.51.72.92,1.4,1.9,2.06,2.94,1.04,1.43,1.98,2.87,2.83,4.3.85,1.43,1.79,2.87,2.84,4.3l20.53,31.09c1.3,1.83,2.57,3.65,3.81,5.47,1.24,1.83,2.37,3.65,3.42,5.48.39.65.62,1.43.68,2.34.07.92-.23,1.64-.88,2.16-.52.26-1.04.39-1.56.39s-1.11.13-1.76.39c-.57.14-1.22.16-1.94.08-.68-.08-1.37-.08-2.05-.08h-7.36c-2.09,0-4.56.03-7.43.1-2.87.06-5.02-.23-6.45-.88-1.44-.65-2.68-1.86-3.72-3.62-1.04-1.76-2.02-3.36-2.93-4.79-2.22-3.52-4.43-7.07-6.65-10.66-2.22-3.58-4.43-7.14-6.65-10.65-1.04-1.7-2.05-3.39-3.03-5.09-.97-1.69-2.05-3.32-3.22-4.89-.27-.39-.72-.91-1.37-1.56-.66-.65-1.37-.85-2.15-.59-1.18.27-2.06.66-2.64,1.18-.59.52-1.21,1.11-1.86,1.76-1.04.78-2.02,1.69-2.93,2.73-.92,1.05-1.63,2.29-2.15,3.72-.27,1.04-.39,2.18-.39,3.42v15.74c0,.91.03,1.93.09,3.03.07,1.11.1,2.25.1,3.42s-.07,2.25-.19,3.23c-.14.98-.4,1.73-.79,2.25-.52.78-1.33,1.34-2.44,1.66-1.11.33-2.38.52-3.81.59-1.44.06-2.94.06-4.5,0-1.56-.07-2.93-.1-4.11-.1-1.43,0-3,.03-4.69.1-1.7.06-3.06-.1-4.11-.49-1.69-.65-2.6-1.83-2.73-3.52-.13-1.7-.2-3.65-.2-5.87v-119.07c0-1.44-.03-2.94-.1-4.5-.06-1.57.17-2.8.69-3.72.52-.91,1.43-1.56,2.74-1.95.26,0,.55-.03.88-.1.32-.06.61-.1.88-.1h14.27c.54,0,1.07.01,1.58.03.13-.01.24-.02.34-.02h18.27c.79,0,1.56.03,2.3.08.32-.05.59-.08.81-.08l9.98.09c.59,0,6.47.01,7.04.04.21-.03.39-.04.55-.04l6.26-.09c1.3,0,4.54.07,5.72.2.05.01.11.01.16.02.01-.01.03-.01.04-.02.07,0,.13,0,.21,0,.22-.01.48-.04.77-.09.39-.06.72-.1.98-.1h18.51c.5,0,1.22.03,1.93.08,1.4.09,2.8.11,4.2.1.15,0,.28,0,.36.01.14,0,.93.09,1.85.18,2.34.24,11.7.27,14.05.05.21-.02.37-.04.43-.05.34-.06.69-.08,1.04-.08.44,0,.89-.09,1.33-.29.08-.03.15-.06.23-.1,4.04-1.17,6.65-3.85,7.83-8.02.26-.52.52-1.3.78-2.35.26-1.04.26-1.95,0-2.73-.26-.65-.39-1.3-.39-1.96s-.13-1.3-.39-1.95c-.79-2.61-1.64-5.18-2.55-7.73-.91-2.54-1.89-5.05-2.93-7.52-1.04-2.48-1.99-4.96-2.83-7.43-.85-2.48-1.8-4.96-2.84-7.43-.65-1.57-1.21-3.13-1.66-4.7-.46-1.56-1.01-3.13-1.66-4.69-2.09-4.95-4.01-10.04-5.77-15.25-1.76-5.21-3.69-10.3-5.77-15.25-.26-.52-.39-.95-.39-1.27s-.13-.69-.39-1.08c-1.05-2.34-1.93-4.72-2.64-7.14-.69-2.3-1.52-4.51-2.5-6.63-.09-.21-.18-.42-.25-.64-.27-.76-.66-1.79-1.16-3.09-.59-1.49-.69-2.77-.29-3.81.39-1.04,1.23-1.69,2.54-1.96.26-.12.49-.16.68-.09.2.06.42.03.69-.1h18.77c1.3,0,2.41.26,3.32.78,1.56,1.05,2.64,2.67,3.23,4.89.58,2.22,1.2,4.24,1.85,6.06.66,1.56,1.21,3.2,1.67,4.89.45,1.69,1,3.32,1.66,4.89,1.04,3,2.02,5.96,2.93,8.89.91,2.94,1.89,5.84,2.93,8.7l4.11,12.32c.39,1.18.75,2.38,1.08,3.62.32,1.24.74,2.44,1.27,3.62.39,1.04.81,2.21,1.27,3.52.45,1.3,1.4,1.89,2.83,1.76.26-.26.49-.43.69-.49.19-.07.42-.23.68-.49.44-.75.81-1.49,1.08-2.25.2-.49.4-.99.59-1.48.69-1.5,1.24-3.09,1.66-4.78.39-1.63.84-3.22,1.36-4.79,1.83-5.47,3.59-10.88,5.28-16.23,1.7-5.34,3.46-10.75,5.28-16.23.65-1.82,1.21-3.61,1.66-5.37.46-1.76,1.01-3.49,1.67-5.18.39-1.05.74-2.06,1.07-3.03.33-.98.95-1.79,1.86-2.45.78-.65,1.76-1.01,2.93-1.07,1.18-.07,2.48-.1,3.91-.1h11.93c1.3,0,2.54.07,3.71.19,1.18.14,2.09.53,2.74,1.18.78.91.91,2.08.39,3.52Z"/>
    </g>
  </g>
</svg>